<svg width="176" height="34" viewBox="0 0 176 34" fill="none" xmlns="http://www.w3.org/2000/svg">
<path d="M167.831 32.2108C166.47 32.2108 165.239 32.0802 164.14 31.819C163.054 31.5578 161.961 31.1798 160.861 30.6849L161.315 26.3133C162.373 26.9319 163.411 27.4337 164.428 27.8186C165.459 28.1898 166.538 28.3754 167.666 28.3754C168.683 28.3754 169.46 28.2104 169.996 27.8805C170.532 27.5505 170.8 27.0281 170.8 26.3133C170.8 25.7772 170.656 25.3372 170.367 24.9936C170.092 24.6499 169.673 24.3406 169.109 24.0656C168.546 23.7907 167.844 23.4951 167.006 23.1789C165.741 22.7115 164.662 22.2029 163.768 21.653C162.889 21.1031 162.215 20.4433 161.748 19.6734C161.294 18.8898 161.067 17.9275 161.067 16.7865C161.067 15.6043 161.376 14.5595 161.995 13.6522C162.614 12.7448 163.493 12.0369 164.634 11.5282C165.775 11.0196 167.13 10.7653 168.697 10.7653C170.003 10.7653 171.171 10.9096 172.202 11.1983C173.247 11.487 174.209 11.8788 175.089 12.3737L174.635 16.7453C173.714 16.0992 172.787 15.5699 171.852 15.1575C170.917 14.7313 169.893 14.5182 168.779 14.5182C167.899 14.5182 167.219 14.6969 166.738 15.0544C166.257 15.4118 166.016 15.9204 166.016 16.5803C166.016 17.3776 166.353 17.9756 167.026 18.3743C167.7 18.773 168.779 19.261 170.264 19.8384C171.226 20.2096 172.058 20.5945 172.759 20.9931C173.474 21.3918 174.065 21.8317 174.532 22.3129C175 22.794 175.343 23.3439 175.563 23.9625C175.797 24.5674 175.914 25.2685 175.914 26.0658C175.914 27.3718 175.598 28.4853 174.965 29.4064C174.347 30.3137 173.433 31.008 172.223 31.4891C171.027 31.9703 169.563 32.2108 167.831 32.2108Z" fill="#222222"/>
<path d="M148.361 31.7984V11.1777H153.145L153.269 13.3635C153.791 12.7861 154.527 12.2087 155.475 11.6313C156.424 11.0539 157.462 10.7653 158.589 10.7653C158.919 10.7653 159.222 10.7928 159.497 10.8477L159.125 15.8792C158.823 15.7967 158.52 15.7417 158.218 15.7142C157.929 15.6867 157.641 15.673 157.352 15.673C156.486 15.673 155.695 15.8723 154.981 16.271C154.266 16.6697 153.764 17.1577 153.475 17.7351V31.7984H148.361Z" fill="#222222"/>
<path d="M135.523 32.2108C133.956 32.2108 132.602 31.9565 131.461 31.4479C130.32 30.9392 129.255 30.245 128.265 29.3652L129.791 28.2929L129.543 31.7984H124.759V0.86731H129.873V14.6007L128.636 13.8171C129.543 12.8823 130.554 12.1537 131.667 11.6313C132.794 11.1089 134.08 10.8477 135.523 10.8477C137.544 10.8477 139.242 11.3358 140.617 12.3118C141.991 13.2879 143.029 14.587 143.73 16.2091C144.445 17.8313 144.803 19.6047 144.803 21.5293C144.803 23.4539 144.445 25.2273 143.73 26.8494C143.029 28.4716 141.991 29.7707 140.617 30.7468C139.242 31.7228 137.544 32.2108 135.523 32.2108ZM134.781 28.0042C135.798 28.0042 136.664 27.7293 137.379 27.1794C138.094 26.6295 138.637 25.8734 139.008 24.9111C139.379 23.935 139.565 22.8078 139.565 21.5293C139.565 20.2508 139.379 19.1304 139.008 18.1681C138.637 17.1921 138.094 16.4291 137.379 15.8792C136.664 15.3293 135.798 15.0544 134.781 15.0544C133.585 15.0544 132.609 15.3293 131.853 15.8792C131.097 16.4291 130.533 17.1921 130.162 18.1681C129.804 19.1304 129.626 20.2508 129.626 21.5293C129.626 22.8078 129.804 23.935 130.162 24.9111C130.533 25.8734 131.097 26.6295 131.853 27.1794C132.609 27.7293 133.585 28.0042 134.781 28.0042Z" fill="#222222"/>
<path d="M102.044 31.7984V0.86731H107.158V14.1883L106.004 13.281C106.87 12.6761 107.811 12.1194 108.829 11.6107C109.846 11.1021 111.063 10.8477 112.479 10.8477C114.293 10.8477 115.771 11.2533 116.912 12.0644C118.053 12.8617 118.892 13.9752 119.428 15.4049C119.964 16.8209 120.232 18.4637 120.232 20.3333V31.7984H115.118V20.7045C115.118 18.7799 114.809 17.357 114.19 16.436C113.571 15.5149 112.561 15.0544 111.159 15.0544C109.963 15.0544 108.98 15.3362 108.21 15.8998C107.454 16.4497 106.787 17.1989 106.21 18.1475L107.158 15.3843V31.7984H102.044Z" fill="#222222"/>
<path d="M78.3852 33.818C74.3694 33.818 71.1813 32.6203 68.8211 30.2248C66.4609 27.847 65.2808 24.5181 65.2808 20.238C65.2808 17.3493 65.8092 14.6809 66.866 12.2326C67.9228 9.76672 69.3759 7.62667 71.2253 5.81247C73.0924 3.98066 75.2236 2.55397 77.6191 1.53238C80.0145 0.510795 82.542 0 85.2017 0C89.3585 0 92.5906 1.21534 94.8979 3.646C97.2053 6.05906 98.359 9.29995 98.359 13.3687C98.359 15.1477 98.1124 16.8738 97.6192 18.5471C97.1261 20.2027 96.3246 21.5678 95.215 22.6422C94.1229 23.7166 92.6698 24.2539 90.8556 24.2539C90.2039 24.2539 89.6579 24.1041 89.2176 23.8047C88.7948 23.4877 88.5835 22.7391 88.5835 21.559C88.5835 19.9914 88.9005 18.2476 89.5346 16.3278C90.1863 14.3903 90.838 12.0124 91.4897 9.19428C90.838 8.50735 89.975 7.87326 88.9005 7.29201C87.8261 6.69315 86.5579 6.39372 85.096 6.39372C83.4403 6.39372 81.8111 6.81645 80.2082 7.6619C78.623 8.50735 77.1787 9.64342 75.8753 11.0701C74.5895 12.4968 73.5591 14.082 72.7841 15.8258C72.0091 17.5695 71.6216 19.3397 71.6216 21.1363C71.6216 22.1578 71.7714 23.1266 72.0708 24.0425C72.3878 24.9408 72.8986 25.6806 73.6032 26.2618C74.3077 26.8254 75.25 27.1073 76.4301 27.1073C77.4517 27.1073 78.5526 26.8783 79.7327 26.4203C80.9304 25.9448 82.0753 25.249 83.1673 24.3331C84.2594 23.4172 85.1841 22.2988 85.9415 20.9777C85.9238 21.1539 85.8886 21.4093 85.8358 21.7439C85.8005 22.061 85.7829 22.4221 85.7829 22.8272C85.7829 23.3908 85.871 23.9985 86.0471 24.6502C86.2409 25.3019 86.5579 25.8567 86.9983 26.3146C87.4386 26.7726 88.0551 27.0016 88.8477 27.0016C89.4113 27.0016 90.063 26.8695 90.8028 26.6053C91.5602 26.3411 92.3176 25.9976 93.0749 25.5749C93.8499 25.1345 94.5369 24.659 95.1357 24.1482L95.2943 24.3067C94.1494 26.1913 92.7051 27.847 90.9613 29.2737C89.2176 30.7004 87.2713 31.8101 85.1224 32.6027C82.9912 33.4129 80.7455 33.818 78.3852 33.818ZM78.1739 23.6198C77.3637 23.6198 76.7736 23.2851 76.4037 22.6158C76.0338 21.9289 75.8489 21.0834 75.8489 20.0794C75.8489 18.6351 76.1659 17.2877 76.8 16.0371C77.4341 14.769 78.2443 13.6593 79.2307 12.7082C80.2347 11.7394 81.3003 10.982 82.4276 10.436C83.5548 9.89001 84.6028 9.617 85.5716 9.617C85.871 9.617 86.2849 9.66984 86.8133 9.77552C87.3593 9.8812 87.738 10.2159 87.9494 10.7795C87.7028 12.1886 87.2184 13.6417 86.4963 15.1388C85.7917 16.636 84.9639 18.0275 84.0128 19.3133C83.0616 20.599 82.0665 21.6382 81.0273 22.4309C80.0057 23.2235 79.0546 23.6198 78.1739 23.6198Z" fill="#0BA1E2"/>
<path d="M59.4776 32.2108C58.2541 32.2108 57.2506 31.9703 56.467 31.4891C55.6972 30.9942 55.1267 30.3412 54.7555 29.5301C54.3843 28.7053 54.1987 27.798 54.1987 26.8082V0.86731H59.3127V24.7049C59.3127 25.8047 59.3745 26.5882 59.4983 27.0557C59.6357 27.5093 59.8832 27.7843 60.2406 27.8805C60.598 27.963 61.1136 28.0042 61.7872 28.0042L61.3335 32.2108H59.4776Z" fill="#222222"/>
<path d="M48.6434 32.2108C47.4199 32.2108 46.4164 31.9703 45.6328 31.4891C44.8629 30.9942 44.2924 30.3412 43.9213 29.5301C43.5501 28.7053 43.3645 27.798 43.3645 26.8082V0.86731H48.4784V24.7049C48.4784 25.8047 48.5403 26.5882 48.664 27.0557C48.8015 27.5093 49.049 27.7843 49.4064 27.8805C49.7638 27.963 50.2793 28.0042 50.9529 28.0042L50.4993 32.2108H48.6434Z" fill="#222222"/>
<path d="M29.206 32.2108C26.9652 32.2108 25.0544 31.7228 23.4734 30.7468C21.8925 29.7707 20.6828 28.4716 19.8442 26.8494C19.0193 25.2273 18.6069 23.4539 18.6069 21.5293C18.6069 19.5909 19.0193 17.8038 19.8442 16.1679C20.6828 14.532 21.8925 13.226 23.4734 12.25C25.0544 11.2602 26.9652 10.7653 29.206 10.7653C31.4468 10.7653 33.3576 11.2602 34.9386 12.25C36.5195 13.226 37.7224 14.532 38.5472 16.1679C39.3858 17.8038 39.8051 19.5909 39.8051 21.5293C39.8051 23.4539 39.3858 25.2273 38.5472 26.8494C37.7224 28.4716 36.5195 29.7707 34.9386 30.7468C33.3576 31.7228 31.4468 32.2108 29.206 32.2108ZM29.206 28.0042C30.9244 28.0042 32.2441 27.4062 33.1652 26.2102C34.1 25.0004 34.5674 23.4401 34.5674 21.5293C34.5674 19.5909 34.1 18.0169 33.1652 16.8071C32.2441 15.5836 30.9244 14.9719 29.206 14.9719C27.5013 14.9719 26.1816 15.5836 25.2468 16.8071C24.312 18.0169 23.8446 19.5909 23.8446 21.5293C23.8446 23.4401 24.312 25.0004 25.2468 26.2102C26.1816 27.4062 27.5013 28.0042 29.206 28.0042Z" fill="#222222"/>
<path d="M10.8053 32.2108C8.44076 32.2108 6.45429 31.7297 4.84587 30.7674C3.2512 29.7913 2.04145 28.4991 1.21662 26.8907C0.405541 25.2685 0 23.4814 0 21.5293C0 19.5634 0.405541 17.7694 1.21662 16.1473C2.02771 14.5114 3.24433 13.2054 4.8665 12.2293C6.48866 11.2533 8.52324 10.7653 10.9702 10.7653C12.125 10.7653 13.1698 10.8959 14.1046 11.1571C15.0394 11.4045 15.8367 11.7138 16.4966 12.085L16.0842 16.2091C15.4518 15.8792 14.737 15.6043 13.9396 15.3843C13.156 15.1644 12.3312 15.0544 11.4651 15.0544C9.48554 15.0544 7.95273 15.6524 6.86671 16.8484C5.78068 18.0444 5.23767 19.6047 5.23767 21.5293C5.23767 23.3577 5.79443 24.8973 6.90795 26.1483C8.02147 27.3856 9.52678 28.0042 11.4239 28.0042C12.235 28.0042 13.0323 27.8873 13.8159 27.6536C14.6132 27.4062 15.3831 27.0694 16.1254 26.6432L16.5791 30.9736C15.8642 31.3448 14.9982 31.6403 13.9809 31.8603C12.9773 32.094 11.9188 32.2108 10.8053 32.2108Z" fill="#222222"/>
</svg>
